<?xml version="1.0" encoding="utf-8"?>
<!-- Generator: Adobe Illustrator 15.0.2, SVG Export Plug-In . SVG Version: 6.00 Build 0)  -->
<!DOCTYPE svg PUBLIC "-//W3C//DTD SVG 1.1//EN" "http://www.w3.org/Graphics/SVG/1.1/DTD/svg11.dtd">
<svg version="1.1" id="Calque_1" xmlns="http://www.w3.org/2000/svg" xmlns:xlink="http://www.w3.org/1999/xlink" x="0px" y="0px"
	 width="256px" height="256px" viewBox="0 0 256 256" enable-background="new 0 0 256 256" xml:space="preserve">
<g>
	<g>
		<path fill="#F1BE41" d="M150.63,46.143c-11.315,0-21.923,2.151-31.824,6.453S100.243,62.732,92.817,70.1
			c-7.425,7.366-13.259,16.029-17.502,25.989S68.95,116.685,68.95,128v1.237l23.16-22.63h25.989l-58.696,56.574h-0.707
			l-58.697-56.574h26.166l19.802,19.625c0.235-14.261,3.153-27.668,8.751-40.221c5.599-12.552,13.142-23.485,22.63-32.796
			c9.487-9.311,20.537-16.678,33.148-22.1c12.611-5.421,26.107-8.132,40.487-8.132c14.497,0,28.11,2.74,40.84,8.221
			c12.729,5.48,23.867,12.994,33.414,22.541c9.548,9.547,17.062,20.686,22.541,33.415C253.26,99.89,256,113.503,256,128
			s-2.74,28.11-8.222,40.84c-5.479,12.729-12.993,23.867-22.541,33.415c-9.547,9.546-20.685,17.06-33.414,22.54
			c-12.729,5.481-26.343,8.222-40.84,8.222c-8.957,0-17.355-1.003-25.194-3.006c-7.838-2.004-15.115-4.743-21.834-8.221
			s-12.906-7.544-18.563-12.198c-5.657-4.656-10.667-9.637-15.027-14.939l16.972-14.497c8.958,9.781,18.505,17.178,28.642,22.187
			c10.136,5.011,21.686,7.514,34.652,7.514c11.433,0,22.129-2.15,32.088-6.452c9.96-4.302,18.652-10.137,26.078-17.503
			c7.425-7.366,13.289-16.029,17.591-25.989s6.453-20.597,6.453-31.911c0-11.315-2.151-21.952-6.453-31.912
			S216.221,77.465,208.796,70.1c-7.426-7.367-16.118-13.201-26.078-17.503C172.759,48.294,162.063,46.143,150.63,46.143z"/>
	</g>
</g>
<circle fill="#999999" cx="150.983" cy="128" r="27.059"/>
</svg>
