<?xml version="1.0" encoding="utf-8"?>
<!-- Generator: Adobe Illustrator 15.0.2, SVG Export Plug-In . SVG Version: 6.00 Build 0)  -->
<!DOCTYPE svg PUBLIC "-//W3C//DTD SVG 1.1//EN" "http://www.w3.org/Graphics/SVG/1.1/DTD/svg11.dtd">
<svg version="1.1" id="Calque_1" xmlns="http://www.w3.org/2000/svg" xmlns:xlink="http://www.w3.org/1999/xlink" x="0px" y="0px"
	 width="256px" height="256px" viewBox="0 0 256 256" enable-background="new 0 0 256 256" xml:space="preserve">
<g>
	<polygon fill="#F1BE41" points="21.075,189.287 23.455,189.287 78.835,189.287 114.626,107.007 117.823,99.659 123.836,104.955 
		169.526,145.185 209.435,106.796 213.481,102.904 213.481,71.601 0,71.601 0,209.893 19.373,190.95 	"/>
	<polygon fill="#F1BE41" points="170.602,188.861 166.582,185.339 129.566,152.894 101.678,217.655 100.158,221.185 96.317,221.185 
		34.222,221.185 4.141,251.463 0,255.63 0,256 213.481,256 213.481,147.85 174.464,185.166 	"/>
	<polygon fill="#999999" points="31.793,215.347 96.317,215.347 127.379,143.213 170.43,180.948 213.481,139.773 213.481,111.004 
		169.701,153.116 119.979,109.336 82.662,195.125 23.455,195.125 0,218.058 0,247.35 	"/>
</g>
<g>
	<g>
		<path fill="#B3C833" d="M228.556,101.02c-10.735,0-19.673-2.83-26.563-8.41c-6.255-5.06-10.63-12.119-13.028-21.009h-8.824V53.286
			h6.166c0-0.063,0-0.127,0-0.191c0-0.28,0.008-0.728,0.052-1.634h-6.218V33.146h9.187c2.787-8.875,7.602-15.974,14.337-21.131
			c7.372-5.65,16.609-8.515,27.454-8.515c7.909,0,14.449,1.257,19.438,3.735l1.943,0.965v25.024l-5.578-4.116
			c-4.381-3.233-9.214-4.804-14.774-4.804c-4.101,0-7.594,1.173-10.681,3.585c-1.885,1.473-3.424,3.211-4.644,5.255h26.305V51.46
			h-30.531c-0.041,0.822-0.053,1.326-0.053,1.634c0,0.063,0,0.127,0.001,0.191h30.583v18.315h-26.479
			c3.063,5.853,7.781,8.615,14.566,8.615c5.502,0,10.845-1.656,15.88-4.923l5.405-3.507V95.21l-1.796,1.001
			C244.979,99.402,237.526,101.02,228.556,101.02z"/>
		<path fill="#FFFFFF" d="M231.118,7c7.399,0,13.361,1.125,17.882,3.37v15.922c-4.955-3.656-10.57-5.488-16.853-5.488
			c-4.863,0-9.145,1.442-12.836,4.328c-3.692,2.885-6.313,6.722-7.862,11.513h28.179V47.96H209.31
			c-0.177,2.461-0.266,4.173-0.266,5.134c0,1.128,0.082,2.359,0.247,3.691h30.337v11.315h-28.179
			c3.307,10.411,9.894,15.615,19.766,15.615c6.212,0,12.145-1.828,17.785-5.487v14.925c-5.222,2.91-12.035,4.366-20.444,4.366
			c-9.958,0-18.077-2.542-24.359-7.63c-6.286-5.085-10.443-12.348-12.479-21.789h-8.077V56.786h6.412
			c-0.166-1.043-0.246-2.273-0.246-3.691c0-0.75,0.089-2.461,0.266-5.134h-6.432V36.646h8.323
			c2.437-9.374,7.045-16.658,13.828-21.852C212.57,9.599,221.014,7,231.118,7 M231.118,0c-11.632,0-21.585,3.108-29.584,9.237
			c-6.685,5.119-11.619,11.968-14.714,20.408h-3.18h-7v7V47.96v7v1.826v11.315v7h7h2.711c2.716,8.411,7.223,15.2,13.442,20.231
			c7.525,6.096,17.203,9.188,28.762,9.188c9.574,0,17.6-1.767,23.853-5.251L256,97.266v-4.112V78.229V65.343l-9.372,6.081v-3.322
			V56.786V54.96v-7V36.646v-3.404L256,40.157V26.292V10.37V6.031l-3.886-1.93C246.559,1.341,239.691,0,231.118,0L231.118,0z
			 M225.085,29.646c2.085-1.237,4.411-1.841,7.063-1.841c3.209,0,6.133,0.606,8.845,1.841h-1.364H225.085L225.085,29.646z
			 M224.326,75.101h15.302h0.245c-2.81,1.083-5.676,1.615-8.658,1.615C228.934,76.716,226.536,76.426,224.326,75.101L224.326,75.101
			z"/>
	</g>
</g>
</svg>
