<?xml version="1.0" encoding="utf-8"?>
<!-- Generator: Adobe Illustrator 15.0.2, SVG Export Plug-In . SVG Version: 6.00 Build 0)  -->
<!DOCTYPE svg PUBLIC "-//W3C//DTD SVG 1.1//EN" "http://www.w3.org/Graphics/SVG/1.1/DTD/svg11.dtd">
<svg version="1.1" id="Calque_1" xmlns="http://www.w3.org/2000/svg" xmlns:xlink="http://www.w3.org/1999/xlink" x="0px" y="0px"
	 width="256px" height="256px" viewBox="0 0 256 256" enable-background="new 0 0 256 256" xml:space="preserve">
<rect x="91.517" y="189.536" transform="matrix(-0.7071 0.7071 -0.7071 -0.7071 432.1358 200.0768)" fill="#343435" width="166.227" height="0.001"/>
<rect x="-5.79" y="60.998" transform="matrix(-0.7071 0.7071 -0.7071 -0.7071 174.3899 49.7633)" fill="#343435" width="165.357" height="0.002"/>
<rect x="5.948" y="88.017" transform="matrix(-0.7071 0.7071 -0.7071 -0.7071 243.9414 74.9916)" fill="#343435" width="200.984" height="0.002"/>
<path fill="#F1BE41" d="M5.161,42.141l-0.243,4.493c0,0.162,0.081,2.267,0.243,6.315c0.162,4.048,0.688,9.513,1.579,16.395
	c0.19,1.47,0.412,3.004,0.653,4.581l49.56-49.56L5.161,42.141z"/>
<path fill="#999999" d="M56.954,24.364L7.394,73.924c0.891,5.807,2.126,12.328,3.718,19.586c1.78,8.118,4.22,16.768,7.315,25.95
	L135.351,2.536L127.939,0L56.954,24.364z"/>
<rect x="-2.871" y="49.144" transform="matrix(0.7071 -0.7071 0.7071 0.7071 -25.3269 37.144)" fill="#FFFFFF" width="70.088" height="0"/>
<path fill="#F1BE41" d="M19.734,123.264c3.724,10.606,8.48,21.657,14.27,33.153c0.446,0.887,0.916,1.772,1.377,2.659L177.497,16.959
	L135.353,2.537L18.427,119.461C18.851,120.719,19.286,121.986,19.734,123.264z"/>
<path fill="#999999" d="M55.316,190.725c0.702,0.948,1.43,1.892,2.153,2.836L219.646,31.383l-42.147-14.424L35.382,159.076
	C40.911,169.678,47.546,180.228,55.316,190.725z"/>
<path fill="#F1BE41" d="M250.839,52.949c0.162-4.048,0.243-6.153,0.243-6.315v-4.493l-31.436-10.757L57.469,193.561
	c7.754,10.132,16.701,20.038,26.852,29.717L250.583,57.016C250.701,55.537,250.79,54.17,250.839,52.949z"/>
<path fill="#999999" d="M244.827,93.51c1.983-9.229,3.441-17.285,4.372-24.167c0.649-4.805,1.108-8.903,1.384-12.327L84.322,223.277
	c0.252,0.24,0.495,0.482,0.749,0.723c9.12,8.635,19.396,16.73,30.79,24.307l117.541-117.541c0.987-2.524,1.925-5.026,2.804-7.502
	C239.97,112.658,242.844,102.74,244.827,93.51z"/>
<rect x="49.888" y="140.146" transform="matrix(0.7071 -0.7071 0.7071 0.7071 -50.0529 159.4547)" fill="#FFFFFF" width="235.13" height="0"/>
<path fill="#F1BE41" d="M124.66,253.936l3.279,2.064l3.278-2.064c14.979-9.148,28.175-19.127,39.591-29.936
	c11.415-10.809,21.354-21.9,29.813-33.275c8.461-11.375,15.564-22.811,21.313-34.308c4.406-8.813,8.225-17.361,11.466-25.65
	L115.86,248.307C118.729,250.213,121.648,252.096,124.66,253.936z"/>
</svg>
