<?xml version="1.0" encoding="utf-8"?>
<!-- Generator: Adobe Illustrator 15.0.2, SVG Export Plug-In . SVG Version: 6.00 Build 0)  -->
<!DOCTYPE svg PUBLIC "-//W3C//DTD SVG 1.1//EN" "http://www.w3.org/Graphics/SVG/1.1/DTD/svg11.dtd">
<svg version="1.1" id="Calque_1" xmlns="http://www.w3.org/2000/svg" xmlns:xlink="http://www.w3.org/1999/xlink" x="0px" y="0px"
	 width="256px" height="256px" viewBox="-69.25 -66.75 256 256" enable-background="new -69.25 -66.75 256 256"
	 xml:space="preserve">
<g>
	<polygon fill="#4785BA" points="142.725,30.22 98.241,0.933 109.362,30.22 	"/>
	<polygon fill="#4785BA" points="75.929,93.376 101.046,36.05 64.65,36.05 	"/>
	<polygon fill="#4785BA" points="108.684,36.05 82.113,96.709 142.772,36.05 	"/>
	<polygon fill="#4785BA" points="154.398,0.901 154.398,29.681 186.501,29.681 186.75,29.464 	"/>
	<polygon fill="#4785BA" points="65.756,29.229 102.151,29.229 91.421,0.97 	"/>
	<polygon fill="#4785BA" points="146.643,28.735 146.643,2.19 107.198,-13.206 98.115,-3.208 	"/>
	<polygon fill="#4785BA" points="146.358,-4.438 133.981,-15.36 114.007,-15.36 146.358,-2.734 	"/>
	<polygon fill="#4785BA" points="76.754,109.031 64.271,139.021 185.589,36.05 153.771,36.05 	"/>
	<polygon fill="#4785BA" points="58.75,38.308 44.596,101.796 58.75,138.227 72.903,101.796 	"/>
	<polygon fill="#4785BA" points="102.451,-16.521 72.683,-16.521 92.887,-5.982 	"/>
	<polygon fill="#4785BA" points="8.146,30.22 19.262,0.933 -25.221,30.22 	"/>
	<polygon fill="#4785BA" points="52.85,36.05 16.455,36.05 41.567,93.376 	"/>
	<polygon fill="#4785BA" points="58.738,28.739 58.75,28.739 58.762,28.739 87.058,-2.413 65.452,-13.677 58.75,-13.677 
		52.045,-13.677 30.442,-2.413 	"/>
	<polygon fill="#4785BA" points="35.391,96.709 8.817,36.05 -25.268,36.05 	"/>
	<polygon fill="#4785BA" points="-36.898,0.901 -69.25,29.464 -69.005,29.681 -36.898,29.681 	"/>
	<polygon fill="#4785BA" points="26.071,0.966 15.353,29.229 51.748,29.229 	"/>
	<polygon fill="#4785BA" points="10.306,-13.206 -29.143,2.19 -29.143,28.735 19.385,-3.208 	"/>
	<polygon fill="#4785BA" points="-16.481,-15.36 -28.858,-4.438 -28.858,-2.734 3.494,-15.36 	"/>
	<polygon fill="#4785BA" points="-36.274,36.05 -68.089,36.05 53.229,139.021 40.75,109.031 	"/>
	<polygon fill="#4785BA" points="44.821,-16.521 15.045,-16.521 24.618,-5.982 	"/>
</g>
</svg>
