<?xml version="1.0" encoding="utf-8"?>
<!-- Generator: Adobe Illustrator 15.0.2, SVG Export Plug-In . SVG Version: 6.00 Build 0)  -->
<!DOCTYPE svg PUBLIC "-//W3C//DTD SVG 1.1//EN" "http://www.w3.org/Graphics/SVG/1.1/DTD/svg11.dtd">
<svg version="1.1" id="Calque_1" xmlns="http://www.w3.org/2000/svg" xmlns:xlink="http://www.w3.org/1999/xlink" x="0px" y="0px"
	 width="256px" height="256px" viewBox="0 0 256 256" enable-background="new 0 0 256 256" xml:space="preserve">
<g>
	<g>
		<path fill="#999999" d="M232.813,21.844c7.038,7.039,12.591,15.391,16.653,25.058c4.066,9.669,6.234,19.798,6.507,30.387
			c0.276,10.592-1.535,21.185-5.427,31.773c-3.896,10.592-10.251,20.294-19.064,29.107c-14.214,14.21-29.533,23.317-45.969,27.313
			c-16.429,3.996-32.947,3.021-49.549-2.921l-27.467,27.466l-15.682-0.104l-11.886,11.89l0.103,15.679l-7.89,7.896l-15.682-0.104
			l-3.794,3.791l-0.102,15.887l-7.891,7.893c-6.903,1.296-13.36,2.218-19.37,2.766c-2.531,0.204-5.074,0.36-7.636,0.461
			c-2.562,0.104-4.953,0.068-7.176-0.101c-2.219-0.171-4.2-0.482-5.942-0.926c-1.741-0.444-3.059-1.111-3.948-1.994
			c-1.161-1.166-1.688-3.229-1.589-6.202c0.104-2.976,0.654-6.391,1.642-10.25c0.99-3.859,2.307-7.978,3.944-12.35
			c1.64-4.372,3.4-8.523,5.28-12.452c1.88-3.931,3.722-7.449,5.535-10.557c1.81-3.108,3.398-5.344,4.764-6.711l74.61-74.614
			c-2.39-8.131-3.829-16.297-4.302-24.494c-0.48-8.196,0.133-16.296,1.845-24.286c1.705-7.995,4.646-15.822,8.812-23.471
			c4.167-7.651,9.77-15,16.808-22.035c8.813-8.817,18.379-15.305,28.695-19.474c10.32-4.166,20.619-6.267,30.903-6.303
			c10.28-0.032,20.116,1.846,29.513,5.636C217.455,9.286,225.71,14.74,232.813,21.844z M220.208,121.153
			c5.532-5.531,9.804-11.852,12.811-18.958c3.005-7.105,4.56-14.501,4.663-22.187c0.103-7.686-1.368-15.34-4.406-22.958
			c-3.042-7.618-7.843-14.705-14.4-21.269c-6.493-6.487-13.427-11.132-20.804-13.936c-7.382-2.802-14.761-3.995-22.139-3.583
			c-7.379,0.407-14.504,2.236-21.365,5.48c-6.872,3.244-13.066,7.634-18.604,13.17L220.208,121.153z M114.75,142.371l-7.276-7.274
			l-76.148,76.146l-3.587,11.989l10.864-4.713L114.75,142.371z"/>
	</g>
</g>
</svg>
