<?xml version="1.0" encoding="utf-8"?>
<!-- Generator: Adobe Illustrator 15.0.2, SVG Export Plug-In . SVG Version: 6.00 Build 0)  -->
<!DOCTYPE svg PUBLIC "-//W3C//DTD SVG 1.1//EN" "http://www.w3.org/Graphics/SVG/1.1/DTD/svg11.dtd">
<svg version="1.1" id="Calque_1" xmlns="http://www.w3.org/2000/svg" xmlns:xlink="http://www.w3.org/1999/xlink" x="0px" y="0px"
	 width="256px" height="256px" viewBox="0 0 256 256" enable-background="new 0 0 256 256" xml:space="preserve">
<path fill="#4785BA" d="M127.725,8.531v116.777l81.328,89.86c0,0,69.5-67.927,17.064-149.549
	C185.791,2.815,127.725,8.531,127.725,8.531z"/>
<g>
	<g>
		<path fill="#999999" d="M128-0.001c-70.609,0-128,57.43-128,128.001c0,70.613,57.391,128.002,128,128.002
			c70.575,0,128-57.389,128-128.002C256,57.429,198.574-0.001,128-0.001z M209.799,204.823l-23.09-13.423l13.563,22.457
			c-17.509,14.773-39.577,24.302-63.767,26.123L128,214.401l-8.533,25.577c-25.652-1.938-48.925-12.541-66.895-28.881l11.638-24.13
			L41.05,198.94c-13.934-17.061-22.958-38.278-24.903-61.478l28.652-9.933l-28.637-9.163c1.974-23.123,10.982-44.266,24.874-61.274
			l23.221,11.981L52.565,44.931c17.665-16.057,40.457-26.562,65.595-28.755L128,45.74l9.842-29.564
			C195.156,21.177,240.26,69.408,240.26,128C240.26,157.687,228.677,184.72,209.799,204.823z"/>
	</g>
</g>
<g>
	<g>
		<path fill="#B3C833" d="M228.557,101.02c-10.736,0-19.674-2.83-26.563-8.41c-6.255-5.06-10.63-12.118-13.028-21.008h-8.824V53.286
			h6.166c0-0.063,0-0.127,0-0.19c0-0.281,0.008-0.729,0.053-1.635h-6.219V33.146h9.188c2.787-8.875,7.602-15.975,14.337-21.131
			c7.372-5.65,16.608-8.515,27.454-8.515c7.908,0,14.449,1.257,19.438,3.735L252.5,8.2v25.024l-5.578-4.117
			c-4.381-3.232-9.214-4.803-14.773-4.803c-4.102,0-7.594,1.172-10.682,3.584c-1.885,1.473-3.424,3.211-4.645,5.256h26.306V51.46
			h-30.53c-0.041,0.821-0.054,1.326-0.054,1.634c0,0.063,0,0.127,0.001,0.191h30.583V71.6h-26.479
			c3.063,5.854,7.781,8.615,14.566,8.615c5.502,0,10.846-1.656,15.881-4.923l5.404-3.507V95.21l-1.796,1.001
			C244.979,99.402,237.525,101.02,228.557,101.02z"/>
		<path fill="#FFFFFF" d="M231.118,7c7.399,0,13.36,1.125,17.882,3.37v15.922c-4.955-3.656-10.57-5.488-16.854-5.488
			c-4.862,0-9.145,1.442-12.836,4.328s-6.313,6.722-7.861,11.513h28.179V47.96h-30.317c-0.178,2.461-0.267,4.173-0.267,5.134
			c0,1.129,0.082,2.359,0.247,3.691h30.337V68.1h-28.179c3.307,10.412,9.894,15.615,19.766,15.615
			c6.212,0,12.145-1.828,17.785-5.486v14.924c-5.223,2.91-12.035,4.367-20.443,4.367c-9.959,0-18.078-2.543-24.359-7.631
			c-6.286-5.084-10.443-12.348-12.479-21.789h-8.077V56.786h6.412c-0.166-1.043-0.246-2.272-0.246-3.69
			c0-0.75,0.09-2.462,0.267-5.135h-6.433V36.646h8.323c2.437-9.375,7.045-16.659,13.828-21.853C212.57,9.599,221.014,7,231.118,7
			 M231.118,0c-11.632,0-21.585,3.108-29.584,9.237c-6.685,5.119-11.619,11.968-14.714,20.408h-3.18h-7v7V47.96v7v1.826v11.315v7h7
			h2.711c2.715,8.41,7.223,15.199,13.441,20.23c7.525,6.096,17.203,9.188,28.762,9.188c9.574,0,17.6-1.767,23.854-5.25L256,97.266
			v-4.111V78.229V65.344l-9.372,6.08v-3.322V56.786V54.96v-7V36.646v-3.404L256,40.157V26.292V10.37V6.031l-3.887-1.93
			C246.559,1.341,239.691,0,231.118,0L231.118,0z M225.085,29.646c2.085-1.237,4.411-1.842,7.063-1.842
			c3.209,0,6.133,0.606,8.845,1.842h-1.364H225.085L225.085,29.646z M224.326,75.102h15.302h0.245
			c-2.811,1.082-5.676,1.614-8.658,1.614C228.934,76.716,226.536,76.426,224.326,75.102L224.326,75.102z"/>
	</g>
</g>
</svg>
