<svg width="256" height="256" viewBox="0 0 256 256" fill="none" xmlns="http://www.w3.org/2000/svg">
<path d="M74.1 191H181.9C183.5 191 184.9 191.4 186.2 192.1L174.2 164C171 157.1 171.4 155.1 163.9 155.1H92.1C84.7 155.1 84.2 156.9 81.4 164L69.9 192.1C71.1 191.4 72.6 191 74.1 191Z" fill="#4786BB"/>
<path d="M74.1 214.7C72.2 214.7 70.6 213.1 70.6 211.2V197.7C70.6 195.8 72.2 194.2 74.1 194.2H181.9C183.8 194.2 185.4 195.8 185.4 197.7V211.2C185.4 213.1 183.8 214.7 181.9 214.7H74.1Z" fill="white"/>
<path d="M181.9 195.2C183.3 195.2 184.4 196.3 184.4 197.7V211.2C184.4 212.6 183.3 213.7 181.9 213.7H74.1C72.7 213.7 71.6 212.6 71.6 211.2V197.7C71.6 196.3 72.7 195.2 74.1 195.2H181.9ZM181.9 193.2H74.1C71.6 193.2 69.6 195.2 69.6 197.7V211.2C69.6 213.7 71.6 215.7 74.1 215.7H181.9C184.4 215.7 186.4 213.7 186.4 211.2V197.7C186.4 195.2 184.4 193.2 181.9 193.2Z" fill="#4786BB"/>
<path d="M179.364 204.54C179.44 201.669 177.173 199.281 174.302 199.205C171.431 199.13 169.043 201.396 168.967 204.267C168.892 207.138 171.158 209.527 174.029 209.602C176.9 209.678 179.289 207.411 179.364 204.54Z" fill="#52A233"/>
<path d="M74.1 234.8C72.2 234.8 70.6 233.2 70.6 231.3V217.8C70.6 215.9 72.2 214.3 74.1 214.3H181.9C183.8 214.3 185.4 215.9 185.4 217.8V231.3C185.4 233.2 183.8 234.8 181.9 234.8H74.1Z" fill="white"/>
<path d="M181.9 215.4C183.3 215.4 184.4 216.5 184.4 217.9V231.4C184.4 232.8 183.3 233.9 181.9 233.9H74.1C72.7 233.9 71.6 232.8 71.6 231.4V217.9C71.6 216.5 72.7 215.4 74.1 215.4H181.9ZM181.9 213.4H74.1C71.6 213.4 69.6 215.4 69.6 217.9V231.4C69.6 233.9 71.6 235.9 74.1 235.9H181.9C184.4 235.9 186.4 233.9 186.4 231.4V217.9C186.4 215.4 184.4 213.4 181.9 213.4Z" fill="#4786BB"/>
<path d="M179.4 224.6C179.4 227.5 177.1 229.8 174.2 229.8C171.3 229.8 169 227.5 169 224.6C169 221.7 171.3 219.4 174.2 219.4C177 219.4 179.4 221.7 179.4 224.6Z" fill="#52A233"/>
<path d="M74.1 255C72.2 255 70.6 253.4 70.6 251.5V238C70.6 236.1 72.2 234.5 74.1 234.5H181.9C183.8 234.5 185.4 236.1 185.4 238V251.5C185.4 253.4 183.8 255 181.9 255H74.1Z" fill="white"/>
<path d="M181.9 235.5C183.3 235.5 184.4 236.6 184.4 238V251.5C184.4 252.9 183.3 254 181.9 254H74.1C72.7 254 71.6 252.9 71.6 251.5V238C71.6 236.6 72.7 235.5 74.1 235.5H181.9ZM181.9 233.5H74.1C71.6 233.5 69.6 235.5 69.6 238V251.5C69.6 254 71.6 256 74.1 256H181.9C184.4 256 186.4 254 186.4 251.5V238C186.4 235.6 184.4 233.5 181.9 233.5Z" fill="#4786BB"/>
<path d="M179.4 244.8C179.4 247.7 177.1 250 174.2 250C171.3 250 169 247.7 169 244.8C169 241.9 171.3 239.6 174.2 239.6C177 239.6 179.4 241.9 179.4 244.8Z" fill="#52A233"/>
<path d="M7.09999 113.1H114.9C116.5 113.1 117.9 113.5 119.2 114.2L107.2 86.1C104 79.2 104.4 77.2 96.9 77.2H25C17.6 77.2 17.1 79 14.3 86.1L2.79999 114.3C4.09999 113.6 5.49999 113.1 7.09999 113.1Z" fill="#4786BB"/>
<path d="M7.09998 136.8C5.19998 136.8 3.59998 135.2 3.59998 133.3V119.8C3.59998 117.9 5.19998 116.3 7.09998 116.3H114.9C116.8 116.3 118.4 117.9 118.4 119.8V133.3C118.4 135.2 116.8 136.8 114.9 136.8H7.09998Z" fill="white"/>
<path d="M114.8 117.4C116.2 117.4 117.3 118.5 117.3 119.9V133.4C117.3 134.8 116.2 135.9 114.8 135.9H7.09998C5.69998 135.9 4.59998 134.8 4.59998 133.4V119.9C4.59998 118.5 5.69998 117.4 7.09998 117.4H114.8ZM114.8 115.4H7.09998C4.59998 115.4 2.59998 117.4 2.59998 119.9V133.4C2.59998 135.9 4.59998 137.9 7.09998 137.9H114.9C117.4 137.9 119.4 135.9 119.4 133.4V119.9C119.3 117.4 117.3 115.4 114.8 115.4Z" fill="#4786BB"/>
<path d="M112.3 126.6C112.3 129.5 110 131.8 107.1 131.8C104.2 131.8 101.9 129.5 101.9 126.6C101.9 123.7 104.2 121.4 107.1 121.4C110 121.4 112.3 123.7 112.3 126.6Z" fill="#52A233"/>
<path d="M7.09998 157C5.19998 157 3.59998 155.4 3.59998 153.5V140C3.59998 138.1 5.19998 136.5 7.09998 136.5H114.9C116.8 136.5 118.4 138.1 118.4 140V153.5C118.4 155.4 116.8 157 114.9 157H7.09998Z" fill="white"/>
<path d="M114.8 137.5C116.2 137.5 117.3 138.6 117.3 140V153.5C117.3 154.9 116.2 156 114.8 156H7.09998C5.69998 156 4.59998 154.9 4.59998 153.5V140C4.59998 138.6 5.69998 137.5 7.09998 137.5H114.8ZM114.8 135.5H7.09998C4.59998 135.5 2.59998 137.5 2.59998 140V153.5C2.59998 156 4.59998 158 7.09998 158H114.9C117.4 158 119.4 156 119.4 153.5V140C119.3 137.5 117.3 135.5 114.8 135.5Z" fill="#4786BB"/>
<path d="M112.3 146.8C112.3 149.7 110 152 107.1 152C104.2 152 101.9 149.7 101.9 146.8C101.9 143.9 104.2 141.6 107.1 141.6C110 141.6 112.3 143.9 112.3 146.8Z" fill="#52A233"/>
<path d="M7.09998 177.2C5.19998 177.2 3.59998 175.6 3.59998 173.7V160.2C3.59998 158.3 5.19998 156.7 7.09998 156.7H114.9C116.8 156.7 118.4 158.3 118.4 160.2V173.7C118.4 175.6 116.8 177.2 114.9 177.2H7.09998Z" fill="white"/>
<path d="M114.8 157.7C116.2 157.7 117.3 158.8 117.3 160.2V173.7C117.3 175.1 116.2 176.2 114.8 176.2H7.09998C5.69998 176.2 4.59998 175.1 4.59998 173.7V160.2C4.59998 158.8 5.69998 157.7 7.09998 157.7H114.8ZM114.8 155.7H7.09998C4.59998 155.7 2.59998 157.7 2.59998 160.2V173.7C2.59998 176.2 4.59998 178.2 7.09998 178.2H114.9C117.4 178.2 119.4 176.2 119.4 173.7V160.2C119.3 157.7 117.3 155.7 114.8 155.7Z" fill="#4786BB"/>
<path d="M112.3 166.9C112.3 169.8 110 172.1 107.1 172.1C104.2 172.1 101.9 169.8 101.9 166.9C101.9 164 104.2 161.7 107.1 161.7C110 161.8 112.3 164.1 112.3 166.9Z" fill="#52A233"/>
<path d="M141.2 113.1H249C250.6 113.1 252 113.5 253.3 114.2L241.3 86.1C238.1 79.2 238.5 77.2 231 77.2H159.2C151.8 77.2 151.3 79 148.5 86.1L137 114.2C138.2 113.6 139.6 113.1 141.2 113.1Z" fill="#4786BB"/>
<path d="M141.2 136.8C139.3 136.8 137.7 135.2 137.7 133.3V119.8C137.7 117.9 139.3 116.3 141.2 116.3H249C250.9 116.3 252.5 117.9 252.5 119.8V133.3C252.5 135.2 250.9 136.8 249 136.8H141.2Z" fill="white"/>
<path d="M248.9 117.4C250.3 117.4 251.4 118.5 251.4 119.9V133.4C251.4 134.8 250.3 135.9 248.9 135.9H141.2C139.8 135.9 138.7 134.8 138.7 133.4V119.9C138.7 118.5 139.8 117.4 141.2 117.4H248.9ZM248.9 115.4H141.2C138.7 115.4 136.7 117.4 136.7 119.9V133.4C136.7 135.9 138.7 137.9 141.2 137.9H249C251.5 137.9 253.5 135.9 253.5 133.4V119.9C253.4 117.4 251.4 115.4 248.9 115.4Z" fill="#4786BB"/>
<path d="M246.4 126.6C246.4 129.5 244.1 131.8 241.2 131.8C238.3 131.8 236 129.5 236 126.6C236 123.7 238.3 121.4 241.2 121.4C244.1 121.4 246.4 123.7 246.4 126.6Z" fill="#52A233"/>
<path d="M141.2 157C139.3 157 137.7 155.4 137.7 153.5V140C137.7 138.1 139.3 136.5 141.2 136.5H249C250.9 136.5 252.5 138.1 252.5 140V153.5C252.5 155.4 250.9 157 249 157H141.2Z" fill="white"/>
<path d="M248.9 137.5C250.3 137.5 251.4 138.6 251.4 140V153.5C251.4 154.9 250.3 156 248.9 156H141.2C139.8 156 138.7 154.9 138.7 153.5V140C138.7 138.6 139.8 137.5 141.2 137.5H248.9ZM248.9 135.5H141.2C138.7 135.5 136.7 137.5 136.7 140V153.5C136.7 156 138.7 158 141.2 158H249C251.5 158 253.5 156 253.5 153.5V140C253.4 137.5 251.4 135.5 248.9 135.5Z" fill="#4786BB"/>
<path d="M246.4 146.8C246.4 149.7 244.1 152 241.2 152C238.3 152 236 149.7 236 146.8C236 143.9 238.3 141.6 241.2 141.6C244.1 141.6 246.4 143.9 246.4 146.8Z" fill="#52A233"/>
<path d="M141.2 177.2C139.3 177.2 137.7 175.6 137.7 173.7V160.2C137.7 158.3 139.3 156.7 141.2 156.7H249C250.9 156.7 252.5 158.3 252.5 160.2V173.7C252.5 175.6 250.9 177.2 249 177.2H141.2Z" fill="white"/>
<path d="M248.9 157.7C250.3 157.7 251.4 158.8 251.4 160.2V173.7C251.4 175.1 250.3 176.2 248.9 176.2H141.2C139.8 176.2 138.7 175.1 138.7 173.7V160.2C138.7 158.8 139.8 157.7 141.2 157.7H248.9ZM248.9 155.7H141.2C138.7 155.7 136.7 157.7 136.7 160.2V173.7C136.7 176.2 138.7 178.2 141.2 178.2H249C251.5 178.2 253.5 176.2 253.5 173.7V160.2C253.4 157.7 251.4 155.7 248.9 155.7Z" fill="#4786BB"/>
<path d="M246.4 166.9C246.4 169.8 244.1 172.1 241.2 172.1C238.3 172.1 236 169.8 236 166.9C236 164 238.3 161.7 241.2 161.7C244.1 161.8 246.4 164.1 246.4 166.9Z" fill="#52A233"/>
<path d="M74.1 35.9H181.9C183.5 35.9 184.9 36.3 186.2 37L174.2 8.9C171 2 171.4 0 163.9 0H92.1C84.7 0 84.2 1.8 81.4 8.9L69.8 37.1C71.1 36.4 72.6 35.9 74.1 35.9Z" fill="#4786BB"/>
<path d="M74.1 59.6C72.2 59.6 70.6 58 70.6 56.1V42.6C70.6 40.7 72.2 39.1 74.1 39.1H181.9C183.8 39.1 185.4 40.7 185.4 42.6V56.1C185.4 58 183.8 59.6 181.9 59.6H74.1Z" fill="white"/>
<path d="M181.9 40.1C183.3 40.1 184.4 41.2 184.4 42.6V56.1C184.4 57.5 183.3 58.6 181.9 58.6H74.1C72.7 58.6 71.6 57.5 71.6 56.1V42.6C71.6 41.2 72.7 40.1 74.1 40.1H181.9ZM181.9 38.1H74.1C71.6 38.1 69.6 40.1 69.6 42.6V56.1C69.6 58.6 71.6 60.6 74.1 60.6H181.9C184.4 60.6 186.4 58.6 186.4 56.1V42.6C186.4 40.2 184.4 38.1 181.9 38.1Z" fill="#4786BB"/>
<path d="M174.2 54.5999C177.072 54.5999 179.4 52.2718 179.4 49.4C179.4 46.5281 177.072 44.2 174.2 44.2C171.328 44.2 169 46.5281 169 49.4C169 52.2718 171.328 54.5999 174.2 54.5999Z" fill="#52A233"/>
<path d="M74.1 79.8C72.2 79.8 70.6 78.2 70.6 76.3V62.8C70.6 60.9 72.2 59.3 74.1 59.3H181.9C183.8 59.3 185.4 60.9 185.4 62.8V76.3C185.4 78.2 183.8 79.8 181.9 79.8H74.1Z" fill="white"/>
<path d="M181.9 60.3C183.3 60.3 184.4 61.4 184.4 62.8V76.3C184.4 77.7 183.3 78.8 181.9 78.8H74.1C72.7 78.8 71.6 77.7 71.6 76.3V62.8C71.6 61.4 72.7 60.3 74.1 60.3H181.9ZM181.9 58.3H74.1C71.6 58.3 69.6 60.3 69.6 62.8V76.3C69.6 78.8 71.6 80.8 74.1 80.8H181.9C184.4 80.8 186.4 78.8 186.4 76.3V62.8C186.4 60.3 184.4 58.3 181.9 58.3Z" fill="#4786BB"/>
<path d="M174.2 74.7C177.072 74.7 179.4 72.3719 179.4 69.5C179.4 66.6281 177.072 64.3 174.2 64.3C171.328 64.3 169 66.6281 169 69.5C169 72.3719 171.328 74.7 174.2 74.7Z" fill="#52A233"/>
<path d="M74.1 99.9C72.2 99.9 70.6 98.3 70.6 96.4V83C70.6 81.1 72.2 79.5 74.1 79.5H181.9C183.8 79.5 185.4 81.1 185.4 83V96.5C185.4 98.4 183.8 100 181.9 100H74.1V99.9Z" fill="white"/>
<path d="M181.9 80.5C183.3 80.5 184.4 81.6 184.4 83V96.5C184.4 97.9 183.3 99 181.9 99H74.1C72.7 99 71.6 97.9 71.6 96.5V83C71.6 81.6 72.7 80.5 74.1 80.5H181.9ZM181.9 78.5H74.1C71.6 78.5 69.6 80.5 69.6 83V96.5C69.6 99 71.6 101 74.1 101H181.9C184.4 101 186.4 99 186.4 96.5V83C186.4 80.5 184.4 78.5 181.9 78.5Z" fill="#4786BB"/>
<path d="M179.4 89.7C179.4 92.6 177.1 94.9 174.2 94.9C171.3 94.9 169 92.6 169 89.7C169 86.8 171.3 84.5 174.2 84.5C177 84.5 179.4 86.9 179.4 89.7Z" fill="#52A233"/>
</svg>
