<?xml version="1.0" encoding="utf-8"?>
<!-- Generator: Adobe Illustrator 24.1.1, SVG Export Plug-In . SVG Version: 6.00 Build 0)  -->
<svg version="1.1" id="Calque_1" xmlns="http://www.w3.org/2000/svg" xmlns:xlink="http://www.w3.org/1999/xlink" x="0px" y="0px"
	 viewBox="0 0 112.9 110" style="enable-background:new 0 0 112.9 110;" xml:space="preserve">
<style type="text/css">
	.st0{fill:#E5E5E4;}
	.st1{fill:#9A9999;}
	.st2{fill:#B3C832;}
</style>
<g>
	<path class="st0" d="M109,16.4l-4.2,4.7l-2.4-1.6l2.8-5.7C95.8,7.7,84.7,4,72.9,3.4l-1,6h-3.1l-1.1-6.1c-11.4,0.3-22.2,3.5-31.5,9
		l2.2,5.6l-2.3,1.6l-4.4-4.4c-8.5,5.9-15.6,13.8-20.6,23l5.3,3l-1.3,2.6l-6.2-1.3c-3.7,8.3-5.8,17.4-5.8,27.1c0,0.9,0,1.8,0.1,2.6
		l6,0.5v3.1l-5.6,1.5c1.2,9.9,4.5,19.2,9.6,27.2l5.7-1.4l1,1.9l38.4-27.2c-1.7-2.3-2.7-5.2-2.7-8.3c0-7.9,6.4-14.3,14.3-14.3
		c1.5,0,3,0.2,4.4,0.7l29.4-31.2l1,0.7l6-7.6C110.2,17.3,109.6,16.8,109,16.4z M89.4,38.6c-7.9-5.7-17.6-9-28.1-9
		c-25.3,0-46,19.5-48,44.2c-0.1-1.4-0.2-2.9-0.2-4.3c0-31.2,25.3-56.4,56.4-56.4c12.3,0,23.7,3.9,33,10.6L89.4,38.6z"/>
	<path class="st1" d="M19,103.2l-5.7,1.4c-5.1-8.1-8.4-17.3-9.6-27.2l5.6-1.5v-3.1l-6-0.5c0-0.9-0.1-1.8-0.1-2.6
		c0-9.6,2.1-18.8,5.8-27.1l6.2,1.3l1.3-2.6l-5.3-3c5-9.2,12-17.1,20.6-23l4.4,4.4l2.3-1.6l-2.2-5.6c9.3-5.4,20-8.7,31.5-9l1.1,6.1
		h3.1l1-6C84.7,4,95.8,7.7,105.2,13.7l-2.8,5.7l2.4,1.6l4.2-4.7c0.6,0.5,1.2,1,1.8,1.5l2.1-2.6C101,5.7,85.9,0,69.5,0
		C31.2,0,0,31.2,0,69.5c0,14.3,4.3,27.5,11.7,38.6c0.4,0.6,0.9,1.2,1.3,1.9l7-5L19,103.2z"/>
	<path class="st2" d="M13.1,69.5c0,1.4,0.1,2.9,0.2,4.3c2-24.8,22.7-44.2,48-44.2c10.5,0,20.2,3.3,28.1,9l13.2-14.9
		c-9.3-6.7-20.7-10.6-33-10.6C38.4,13.1,13.1,38.4,13.1,69.5z"/>
	<path class="st1" d="M77,79.1c2.1-1.5,3.6-3.6,4.4-6.1l-6.3,3.4L77,79.1z"/>
	<path class="st1" d="M66.8,80.9c0.5,0.1,1,0.2,1.5,0.3C67.8,81.1,67.3,81,66.8,80.9L66.8,80.9z"/>
	<path class="st1" d="M69.4,79.5c0.2,0,0.5,0,0.7,0v1.8c2.6,0,5-0.8,6.9-2.2l-1.9-2.7L69.4,79.5z"/>
	<path class="st1" d="M58.3,69.6c0,2.5,0.8,4.9,2.2,6.8l0.1,0c-1.3-1.9-2.1-4.1-2.1-6.6c0-6.4,5.2-11.6,11.6-11.6
		c0.7,0,1.4,0.1,2.1,0.2l0.2-0.3c-0.8-0.2-1.5-0.2-2.4-0.2C63.6,57.8,58.3,63.1,58.3,69.6z"/>
	<path class="st1" d="M60.6,76.3L60.6,76.3c1.5,2.2,3.7,3.8,6.3,4.5l0,0C64.3,80.1,62.1,78.5,60.6,76.3z"/>
	<path class="st1" d="M69.4,79.5l5.6-3.1l-4.9-6.8l-8,5.7C63.7,77.6,66.4,79.2,69.4,79.5z"/>
	<path class="st1" d="M76.1,62c-1.7-1.2-3.8-2-6-2c-5.4,0-9.8,4.4-9.8,9.8c0,2.1,0.6,4,1.7,5.5l8-5.7L76.1,62z"/>
	<path class="st1" d="M79.5,62.9l-1.1,1.4c-0.6-0.9-1.4-1.7-2.3-2.3l-6,7.6l4.9,6.8l6.3-3.4c0.3-1.1,0.5-2.2,0.5-3.4
		c0-2.6-0.8-4.9-2.2-6.9L79.5,62.9C79.5,62.9,79.5,63,79.5,62.9z"/>
	<path class="st1" d="M79.5,62.9L79.5,62.9C79.5,63,79.5,62.9,79.5,62.9z"/>
	<path class="st1" d="M79.5,62.9L79.5,62.9C79.5,62.9,79.4,62.8,79.5,62.9z"/>
	<path class="st1" d="M69.4,79.5l-2.6,1.4c0.5,0.1,1,0.2,1.5,0.3c0.1,0,0.2,0,0.2,0c0.5,0.1,1,0.1,1.6,0.1v-1.8
		C69.9,79.5,69.6,79.5,69.4,79.5z"/>
	<path class="st0" d="M77.7,80.1l0.8,1c3.1-2.3,5.3-5.8,5.8-9.8l-1.4,0.8C82.2,75.4,80.3,78.2,77.7,80.1z"/>
	<path class="st0" d="M70.1,82.6c-1.7,0-3.3-0.3-4.8-0.9l-1.4,0.8c1.9,0.9,4,1.4,6.2,1.4c3.1,0,6-1,8.4-2.7l-0.8-1
		C75.6,81.7,73,82.6,70.1,82.6z"/>
	<path class="st0" d="M57.1,69.6c0-7.2,5.9-13.1,13.1-13.1c1.2,0,2.3,0.2,3.4,0.5l1-1.1c-1.4-0.4-2.8-0.7-4.4-0.7
		c-7.9,0-14.3,6.4-14.3,14.3c0,3.1,1,5.9,2.7,8.3l1-0.7C57.9,75,57.1,72.4,57.1,69.6z"/>
	<path class="st0" d="M59.5,77.1l-1,0.7c1.4,2,3.3,3.6,5.4,4.6l1.4-0.8C62.9,80.8,60.9,79.1,59.5,77.1z"/>
	<path class="st0" d="M83.2,69.6c0,0.9-0.1,1.7-0.3,2.6l1.4-0.8c0.1-0.6,0.1-1.2,0.1-1.8c0-3.4-1.2-6.6-3.2-9.1l-0.8,1.1
		C82.1,63.8,83.2,66.6,83.2,69.6z"/>
	<path class="st0" d="M77,79.1l0.8,1c2.6-1.9,4.5-4.7,5.1-8L81.4,73C80.6,75.5,79,77.6,77,79.1z"/>
	<path class="st0" d="M70.1,81.3c-0.5,0-1.1,0-1.6-0.1c-0.1,0-0.2,0-0.2,0c-0.5-0.1-1-0.2-1.5-0.3l-1.5,0.8c1.5,0.6,3.1,0.9,4.8,0.9
		c2.9,0,5.5-0.9,7.6-2.5l-0.8-1C75.1,80.5,72.7,81.3,70.1,81.3z"/>
	<path class="st0" d="M81.9,69.6c0,1.2-0.2,2.3-0.5,3.4l1.5-0.8c0.2-0.8,0.3-1.7,0.3-2.6c0-3-1-5.8-2.7-8l-0.8,1.1
		C81,64.6,81.9,67,81.9,69.6z"/>
	<path class="st0" d="M58.3,69.6c0-6.5,5.3-11.8,11.8-11.8c0.8,0,1.6,0.1,2.4,0.2l1-1.1c-1.1-0.3-2.2-0.5-3.4-0.5
		c-7.2,0-13.1,5.9-13.1,13.1c0,2.8,0.9,5.4,2.4,7.5l1.1-0.7C59.2,74.4,58.3,72.1,58.3,69.6z"/>
	<path class="st0" d="M60.5,76.4l-1.1,0.7c1.5,2,3.5,3.6,5.8,4.6l1.5-0.8C64.2,80.1,62,78.5,60.5,76.4z"/>
	<path class="st1" d="M81.2,60.5l17.7-24.7l7-9.6l-1.1-0.8L79,58.3C79.8,59,80.5,59.7,81.2,60.5z"/>
	<path class="st1" d="M74.5,55.9c1.6,0.5,3.2,1.4,4.5,2.4l25.9-32.9l-1-0.7L74.5,55.9z"/>
	<path class="st1" d="M78.4,64.3l1.1-1.4c0-0.1,0,0,0,0l0.1-0.2c-0.6-0.9-1.4-1.7-2.3-2.4L76.1,62C77,62.7,77.8,63.4,78.4,64.3z"/>
	<path class="st1" d="M70.1,58.1c-6.4,0-11.6,5.2-11.6,11.6c0,2.5,0.8,4.7,2.1,6.6l1.5-1.1c-1.1-1.6-1.7-3.5-1.7-5.5
		c0-5.4,4.4-9.8,9.8-9.8c2.2,0,4.3,0.8,6,2l1.3-1.6c-1.4-1.1-3.1-1.9-4.9-2.3l-0.2,0.3C71.5,58.2,70.8,58.1,70.1,58.1z"/>
	<path class="st1" d="M66.8,80.9l2.6-1.4c-3-0.2-5.7-1.8-7.3-4.2l-1.5,1.1C62.1,78.5,64.3,80.1,66.8,80.9z"/>
	<path class="st1" d="M78.2,59.3l0.8-1c-1.3-1-2.8-1.9-4.5-2.4l-1,1.1C75.2,57.4,76.8,58.2,78.2,59.3z"/>
	<path class="st1" d="M79,58.3l-0.8,1c0.8,0.7,1.6,1.4,2.2,2.3l0.8-1.1C80.5,59.7,79.8,59,79,58.3z"/>
	<path class="st1" d="M79.6,62.7l0.8-1.1c-0.7-0.8-1.4-1.6-2.2-2.3l-0.8,1C78.2,61,79,61.8,79.6,62.7z"/>
	<path class="st1" d="M72.5,58.1c1.8,0.4,3.5,1.2,4.9,2.3l0.8-1c-1.4-1.1-3-1.9-4.7-2.4L72.5,58.1z"/>
</g>
</svg>
